<?xml version="1.0" encoding="utf-8"?>
<!-- Generator: Adobe Illustrator 26.1.0, SVG Export Plug-In . SVG Version: 6.00 Build 0)  -->
<svg version="1.1" id="Layer_3" xmlns="http://www.w3.org/2000/svg" xmlns:xlink="http://www.w3.org/1999/xlink" x="0px" y="0px"
	 viewBox="0 0 456 456" style="enable-background:new 0 0 456 456;" xml:space="preserve">
<style type="text/css">
	.st0{fill:#FFFFFF;stroke:#FFFFFF;stroke-miterlimit:10;}
</style>
<g>
	<g>
		<g>
			<path class="st0" d="M175,286.2l-1.1-4.9c-0.4-2-2.3-3.2-4.2-2.7c-2,0.4-3.2,2.3-2.7,4.2l1.1,4.9c0.4,1.7,1.8,2.9,3.5,2.9
				c0.2,0,0.5,0,0.8-0.1C174.2,290,175.4,288.1,175,286.2z"/>
		</g>
	</g>
	<g>
		<g>
			<path class="st0" d="M183.3,325l-4.7-22.5c-0.4-2-2.3-3.2-4.2-2.7c-2,0.4-3.2,2.3-2.7,4.2l4.7,22.5c0.4,1.7,1.8,2.9,3.5,2.9
				c0.2,0,0.5,0,0.8-0.1C182.4,328.9,183.6,327,183.3,325z"/>
		</g>
	</g>
	<g>
		<g>
			<path class="st0" d="M215.4,324.7l-3.1-43.8c-0.1-2-1.8-3.5-3.9-3.3c-2,0.1-3.5,1.8-3.3,3.9l3.1,43.8c0.1,1.9,1.7,3.3,3.6,3.3
				c0.1,0,0.1,0,0.3,0C214.1,328.5,215.6,326.8,215.4,324.7z"/>
		</g>
	</g>
	<g>
		<g>
			<path class="st0" d="M248.6,313c-2-0.1-3.7,1.3-3.9,3.3L244,325c-0.1,2,1.3,3.7,3.3,3.9c0.1,0,0.1,0,0.3,0c1.9,0,3.5-1.5,3.6-3.3
				l0.6-8.7C252,314.8,250.5,313.1,248.6,313z"/>
		</g>
	</g>
	<g>
		<g>
			<path class="st0" d="M251,277.9c-2-0.1-3.7,1.3-3.9,3.3l-1.3,18.3c-0.1,2,1.3,3.7,3.3,3.9c0.1,0,0.1,0,0.3,0
				c1.9,0,3.5-1.5,3.6-3.3l1.3-18.3C254.5,279.8,253,278.1,251,277.9z"/>
		</g>
	</g>
	<g>
		<g>
			<path class="st0" d="M286.3,277.7c-2-0.4-3.9,0.8-4.2,2.7l-9.2,43.8c-0.4,2,0.8,3.9,2.7,4.2c0.3,0.1,0.5,0.1,0.8,0.1
				c1.7,0,3.2-1.1,3.5-2.9l9.2-43.8C289.4,280,288.2,278.1,286.3,277.7z"/>
		</g>
	</g>
	<g>
		<g>
			<path class="st0" d="M336,239.5h-18.5v-36c0-1.6-0.4-3.1-1.1-4.4l-7.8-15c3.2-0.8,5.5-3.6,5.5-7v-5.3c0-4-3.2-7.3-7.3-7.3H257
				c-4,0-7.3,3.2-7.3,7.3v5.3c-1.4-2.6-3.2-5.1-5.2-7.3c-4.5-4.8-7-11-7-17.6v-3.5c1-0.9,1.6-2.2,1.6-3.6v-35c0-2.7-2.2-4.9-4.9-4.9
				h-21.6c-2.7,0-4.9,2.2-4.9,4.9v34.9c0,1.4,0.6,2.7,1.6,3.6v3.5c0,6.6-2.5,12.8-7,17.6c-5.8,6.1-9,14.1-9,22.6v29.4l-4.2-24.8
				c-1.1-6-4.6-11.2-9.8-14.2c-5.2-3.1-11.5-3.7-17.3-1.8l-2.3,0.8c-1.7-10.9,0.3-22.4,0.4-22.5c0.4-2-1-3.8-2.9-4.2
				c-2-0.4-3.8,1-4.2,2.9c-0.1,0.6-1.8,10.5-0.8,21.2L141,145.7c-0.6-1.9-2.7-2.9-4.6-2.3c-1.9,0.6-2.9,2.7-2.3,4.6l10.2,29.5
				c-0.2-0.4-0.4-0.8-0.7-1.2c-6.6-11.5-13.3-18.6-20-21.2c-1.8-0.7-3.9,0.2-4.7,2s0.2,3.9,2,4.7c8,3,15.8,16.4,20.4,25.9l-2.5,0.8
				c-5.7,2-10.3,6.3-12.5,12c-2.2,5.6-1.8,12,1.1,17.3l11.6,21.4h-19c-4.2,0-7.7,3.5-7.7,7.7v10.2c0,4.2,3.5,7.7,7.7,7.7h8.2
				l15.9,72.5c1.8,7.9,8.7,13.5,16.8,13.5H295c8.1,0,15-5.6,16.8-13.5l16-72.4h8.2c4.2,0,7.7-3.5,7.7-7.7v-10.2
				C343.7,242.9,340.3,239.5,336,239.5z M310,202.3c0.2,0.4,0.3,0.7,0.3,1.1v36h-5.7v-24.7c0-2.8-2.3-5.1-5.1-5.1h-35.3
				c-2.8,0-5.1,2.3-5.1,5.1v24.7h-5.7v-34.7v-1.3c0-0.4,0.1-0.8,0.3-1.1l9.4-18.1h37.4L310,202.3z M297.4,216.9v22.6h-31v-22.6
				H297.4L297.4,216.9z M256.9,171.7h49.8v5.4l0,0h-49.8L256.9,171.7z M255.2,184l-2,3.9c-0.3-2-0.7-3.9-1.3-5.7
				C252.8,183,253.9,183.7,255.2,184z M215,112.4h16.9v30.2H215V112.4L215,112.4z M207.6,174.6c5.8-6.1,9-14.1,9-22.6v-2.3h13.7v2.3
				c0,8.4,3.2,16.4,9,22.6c4.5,4.8,7,11,7,17.6v9h-27.4c-4,0-7.3,3.2-7.3,7.3v31h-11.1v-47.3l0,0
				C200.6,185.6,203.1,179.4,207.6,174.6z M246.3,208.4v31.1h-27.5v-31c0,0,0-0.1,0.1-0.1L246.3,208.4L246.3,208.4z M136.9,220.6
				l-3.2-6c-1.9-3.5-2.1-7.6-0.7-11.3c1.4-3.7,4.4-6.6,8.1-7.8l23.3-8c3.7-1.3,7.8-0.8,11.2,1.1c3.4,2,5.7,5.4,6.4,9.3l7.1,41.5
				h-31.7l6.5-2.3c1.9-0.6,2.9-2.7,2.3-4.6c-0.6-1.9-2.7-2.9-4.6-2.3l-16.3,5.6l-4.9-9l22-7.5c1.9-0.6,2.9-2.7,2.3-4.6
				c-0.6-1.9-2.7-2.9-4.6-2.3L136.9,220.6z M304.8,335.8c-1,4.6-5,7.8-9.7,7.8H160.8c-4.7,0-8.7-3.2-9.7-7.8L135.5,265h185
				L304.8,335.8z M336.5,257.3L336.5,257.3c0,0.3-0.2,0.5-0.5,0.5H119.9c-0.3,0-0.5-0.2-0.5-0.5v-10.2c0-0.3,0.2-0.5,0.5-0.5H336
				c0.3,0,0.5,0.2,0.5,0.5V257.3L336.5,257.3z"/>
		</g>
	</g>
</g>
</svg>
