<?xml version="1.0" encoding="utf-8"?>
<!-- Generator: Adobe Illustrator 26.1.0, SVG Export Plug-In . SVG Version: 6.00 Build 0)  -->
<svg version="1.1" id="Layer_3" xmlns="http://www.w3.org/2000/svg" xmlns:xlink="http://www.w3.org/1999/xlink" x="0px" y="0px"
	 viewBox="0 0 456 456" style="enable-background:new 0 0 456 456;" xml:space="preserve">
<style type="text/css">
	.st0{fill:#FFFFFF;stroke:#FFFFFF;stroke-miterlimit:10;}
</style>
<g>
	<g>
		<g>
			<path class="st0" d="M153.4,311l-1.5-7c-0.6-2.8-3.3-4.5-6-3.9c-2.8,0.6-4.5,3.3-3.9,6l1.5,7c0.5,2.4,2.6,4.1,5,4.1
				c0.3,0,0.7,0,1.1-0.1C152.3,316.5,154,313.8,153.4,311z"/>
		</g>
	</g>
	<g>
		<g>
			<path class="st0" d="M165.1,366.1l-6.7-31.9c-0.6-2.8-3.3-4.5-6-3.9c-2.8,0.6-4.5,3.3-3.9,6l6.7,31.9c0.5,2.4,2.6,4.1,5,4.1
				c0.3,0,0.7,0,1.1-0.1C163.9,371.6,165.6,368.9,165.1,366.1z"/>
		</g>
	</g>
	<g>
		<g>
			<path class="st0" d="M210.7,365.7l-4.4-62.1c-0.2-2.8-2.6-4.9-5.5-4.7c-2.8,0.2-4.9,2.6-4.7,5.5l4.4,62.1
				c0.2,2.7,2.4,4.7,5.1,4.7c0.1,0,0.2,0,0.4,0C208.8,371,210.9,368.6,210.7,365.7z"/>
		</g>
	</g>
	<g>
		<g>
			<path class="st0" d="M257.7,349c-2.8-0.2-5.3,1.9-5.5,4.7l-0.9,12.4c-0.2,2.8,1.9,5.3,4.7,5.5c0.1,0,0.2,0,0.4,0
				c2.7,0,4.9-2.1,5.1-4.7l0.9-12.4C262.6,351.6,260.5,349.2,257.7,349z"/>
		</g>
	</g>
	<g>
		<g>
			<path class="st0" d="M261.2,299.3c-2.8-0.2-5.3,1.9-5.5,4.7l-1.8,26c-0.2,2.8,1.9,5.3,4.7,5.5c0.1,0,0.2,0,0.4,0
				c2.7,0,4.9-2.1,5.1-4.7l1.8-26C266.1,301.9,264,299.5,261.2,299.3z"/>
		</g>
	</g>
	<g>
		<g>
			<path class="st0" d="M311.2,299c-2.8-0.6-5.5,1.2-6,3.9L292.1,365c-0.6,2.8,1.2,5.5,3.9,6c0.4,0.1,0.7,0.1,1.1,0.1
				c2.4,0,4.5-1.6,5-4.1l13.1-62.1C315.7,302.3,313.9,299.6,311.2,299z"/>
		</g>
	</g>
	<g>
		<g>
			<path class="st0" d="M381.8,244.8h-26.3v-51.1c0-2.2-0.5-4.4-1.5-6.3l-11.1-21.3c4.5-1.1,7.8-5.1,7.8-9.9v-7.5
				c0-5.7-4.6-10.3-10.3-10.3h-70.7c-5.7,0-10.3,4.6-10.3,10.3v7.5c-2-3.7-4.5-7.2-7.4-10.4c-6.4-6.8-9.9-15.6-9.9-24.9v-5
				c1.4-1.3,2.3-3.1,2.3-5.1V61.1c0-3.8-3.1-6.9-6.9-6.9h-30.7c-3.8,0-6.9,3.1-6.9,6.9v49.5c0,2,0.9,3.9,2.3,5.1v5
				c0,9.3-3.5,18.2-9.9,24.9c-8.2,8.7-12.7,20-12.7,32v41.7l-6-35.2c-1.5-8.5-6.5-15.9-13.9-20.2c-7.4-4.4-16.3-5.3-24.5-2.5
				l-3.2,1.1c-2.4-15.4,0.4-31.7,0.5-31.9c0.5-2.8-1.4-5.4-4.1-5.9c-2.8-0.5-5.4,1.4-5.9,4.1c-0.1,0.8-2.6,14.9-1.1,30.1l-16.2-47.1
				c-0.9-2.7-3.8-4.1-6.5-3.2s-4.1,3.8-3.2,6.5l14.4,41.9c-0.3-0.6-0.6-1.1-1-1.7c-9.3-16.3-18.8-26.4-28.3-30.1
				c-2.6-1-5.6,0.3-6.6,2.9c-1,2.6,0.3,5.6,2.9,6.6c11.3,4.3,22.4,23.2,28.9,36.8l-3.6,1.2c-8.1,2.8-14.6,9-17.7,17
				s-2.6,17,1.5,24.5l16.4,30.4h-27c-6,0-10.9,4.9-10.9,10.9v14.4c0,6,4.9,10.9,10.9,10.9H87l22.7,102.7
				c2.5,11.2,12.3,19.1,23.8,19.1h190.3c11.5,0,21.3-7.9,23.8-19.1L370.2,281h11.6c6,0,10.9-4.9,10.9-10.9v-14.4
				C392.7,249.7,387.8,244.8,381.8,244.8z M344.9,192.1c0.3,0.5,0.4,1,0.4,1.6v51.1h-8.1v-35c0-4-3.2-7.2-7.2-7.2h-50
				c-4,0-7.2,3.2-7.2,7.2v35h-8.1v-49.2v-1.9c0-0.5,0.1-1.1,0.4-1.6l13.4-25.7h53L344.9,192.1z M327,212.8v32h-44v-32H327L327,212.8
				z M269.6,148.6h70.7v7.6l0,0h-70.7L269.6,148.6z M267.1,166.1l-2.9,5.5c-0.4-2.8-1-5.5-1.8-8.1
				C263.7,164.7,265.3,165.7,267.1,166.1z M210.1,64.5h24v42.8h-24V64.5L210.1,64.5z M199.6,152.7c8.2-8.7,12.7-20,12.7-32v-3.3
				h19.4v3.3c0,11.9,4.5,23.3,12.7,32c6.4,6.8,9.9,15.6,9.9,24.9v12.8h-38.8c-5.7,0-10.3,4.6-10.3,10.3v44h-15.7v-67.1l0,0
				C189.7,168.4,193.2,159.5,199.6,152.7z M254.5,200.7v44.1h-38.9v-44c0,0,0-0.1,0.1-0.1L254.5,200.7L254.5,200.7z M99.4,218
				l-4.5-8.5c-2.7-4.9-3-10.8-1-16s6.3-9.3,11.5-11.1l33-11.3c5.3-1.8,11.1-1.2,15.9,1.6c4.8,2.9,8.1,7.7,9.1,13.2l10.1,58.9h-45
				l9.2-3.2c2.7-0.9,4.1-3.8,3.2-6.5c-0.9-2.7-3.8-4.1-6.5-3.2l-23.1,8l-6.9-12.8l31.2-10.7c2.7-0.9,4.1-3.8,3.2-6.5
				c-0.9-2.7-3.8-4.1-6.5-3.2L99.4,218z M337.5,381.4c-1.4,6.5-7.1,11.1-13.8,11.1H133.3c-6.7,0-12.4-4.6-13.8-11.1L97.3,281h262.4
				L337.5,381.4z M382.5,270.1L382.5,270.1c0,0.4-0.3,0.7-0.7,0.7H75.2c-0.4,0-0.7-0.3-0.7-0.7v-14.4c0-0.4,0.3-0.7,0.7-0.7h306.6
				c0.4,0,0.7,0.3,0.7,0.7V270.1L382.5,270.1z"/>
		</g>
	</g>
</g>
</svg>
