<svg id="Capa_1" enable-background="new 0 0 512 512" height="512" viewBox="0 0 512 512" width="512" xmlns="http://www.w3.org/2000/svg"><g><path d="m360 140v20.26l104-12.26v-8c0-4.418-3.582-8-8-8h-88c-4.419 0-8 3.582-8 8z" fill="#f2d1ff"/><path d="m368 132h-8c-4.418 0-8 3.582-8 8v32h112v-24h-80c-8.837 0-16-7.164-16-16z" fill="#dfbdf0"/><path d="m208 124v34.305l104-10.305v-24c0-4.418-3.582-8-8-8h-88c-4.418 0-8 3.582-8 8z" fill="#ffc263"/><path d="m216 132v-16h-8c-4.418 0-8 3.582-8 8v48h112v-24h-80c-8.837 0-16-7.164-16-16z" fill="#ffaa5a"/><path d="m56 108v53.889l104-13.889v-40c0-4.418-3.582-8-8-8h-88c-4.418 0-8 3.582-8 8z" fill="#f4aa73"/><path d="m64 132v-32h-8c-4.418 0-8 3.582-8 8v64h112v-24h-80c-8.837 0-16-7.164-16-16z" fill="#e29a6c"/><path d="m208 244v17.907l104-9.907v-8c0-4.418-3.582-8-8-8h-88c-4.418 0-8 3.582-8 8z" fill="#7ad7ee"/><path d="m216 236h-8c-4.418 0-8 3.582-8 8v32h112v-24h-80c-8.837 0-16-7.164-16-16z" fill="#4bc3ef"/><path d="m360 212v49.907l104-9.907v-40c0-4.418-3.582-8-8-8h-88c-4.419 0-8 3.582-8 8z" fill="#ffe077"/><path d="m368 236v-32h-8c-4.418 0-8 3.582-8 8v64h112v-24h-80c-8.837 0-16-7.164-16-16z" fill="#ffc263"/><path d="m56 228v32.93l104-8.93v-24c0-4.418-3.582-8-8-8h-88c-4.418 0-8 3.582-8 8z" fill="#c9c5c9"/><path d="m64 236v-16h-8c-4.418 0-8 3.582-8 8v48h112v-24h-80c-8.837 0-16-7.164-16-16z" fill="#b8b2b8"/><path d="m56 348v15.554l104-7.554v-8c0-4.418-3.582-8-8-8h-88c-4.418 0-8 3.581-8 8z" fill="#8ceea1"/><path d="m64 340h-8c-4.418 0-8 3.582-8 8v32h112v-24h-80c-8.837 0-16-7.164-16-16z" fill="#4ce1a1"/><path d="m360 332v35.464l104-11.464v-24c0-4.418-3.582-8-8-8h-88c-4.419 0-8 3.581-8 8z" fill="#ffc263"/><path d="m368 340v-16h-8c-4.418 0-8 3.582-8 8v48h112v-24h-80c-8.837 0-16-7.164-16-16z" fill="#ffaa5a"/><path d="m208 316v46.902l104-6.902v-40c0-4.418-3.582-8-8-8h-88c-4.418 0-8 3.581-8 8z" fill="#ff7e92"/><path d="m216 340v-32h-8c-4.418 0-8 3.582-8 8v64h112v-24h-80c-8.837 0-16-7.164-16-16z" fill="#ff5f7a"/><path d="m8 268h496v16h-496z" fill="#c9c5c9"/><path d="m8 372h496v16h-496z" fill="#c9c5c9"/><path d="m504 412c-4.422 0-8-3.578-8-8v-216c0-4.414-3.586-8-8-8h-464c-4.414 0-8 3.586-8 8v216c0 4.422-3.578 8-8 8s-8-3.578-8-8v-216c0-13.234 10.766-24 24-24h464c13.234 0 24 10.766 24 24v216c0 4.422-3.579 8-8 8z" fill="#dbd8db"/></g></svg>