<svg id="svg16" height="512" viewBox="0 0 64 64" width="512" xmlns="http://www.w3.org/2000/svg" xmlns:osb="http://www.openswatchbook.org/uri/2009/osb"><path id="path843" d="m9.4765625 39.978516a1.50015 1.50015 0 0 0 -1.4765625 1.5214844v10c.00000007 2.4670541 2.0329458 4.5000001 4.5 4.5h10a1.50015 1.50015 0 1 0 0-3h-10c-.8569458.00000002-1.5-.6430541-1.5-1.5v-10a1.50015 1.50015 0 0 0 -1.5234375-1.5214844z" font-feature-settings="normal" font-variant-alternates="normal" font-variant-caps="normal" font-variant-ligatures="normal" font-variant-numeric="normal" font-variant-position="normal" isolation="auto" mix-blend-mode="normal" paint-order="fill markers stroke" shape-padding="0" solid-color="rgb(0,0,0)" text-decoration-color="rgb(0,0,0)" text-decoration-line="none" text-decoration-style="solid" text-indent="0" text-orientation="mixed" text-transform="none" white-space="normal"/><path id="path850" d="m54.476562 39.978516a1.50015 1.50015 0 0 0 -1.4765625 1.5214844v10c.00000006.85694573-.64305444 1.5000001-1.5 1.5h-10a1.50015 1.50015 0 1 0 0 3h10c2.4670544.0000004 4.5000002-2.0329457 4.5-4.5v-10a1.50015 1.50015 0 0 0 -1.5234375-1.5214844z" font-feature-settings="normal" font-variant-alternates="normal" font-variant-caps="normal" font-variant-ligatures="normal" font-variant-numeric="normal" font-variant-position="normal" isolation="auto" mix-blend-mode="normal" paint-order="fill markers stroke" shape-padding="0" solid-color="rgb(0,0,0)" text-decoration-color="rgb(0,0,0)" text-decoration-line="none" text-decoration-style="solid" text-indent="0" text-orientation="mixed" text-transform="none" white-space="normal"/><path id="path839" d="m41.5 8a1.50015 1.50015 0 1 0 0 3h10c.85694587.00000001 1.5000001.64305427 1.5 1.5v10a1.50015 1.50015 0 1 0 3 0v-10c.00000016-2.4670543-2.0329459-4.5-4.5-4.5z" font-feature-settings="normal" font-variant-alternates="normal" font-variant-caps="normal" font-variant-ligatures="normal" font-variant-numeric="normal" font-variant-position="normal" isolation="auto" mix-blend-mode="normal" paint-order="fill markers stroke" shape-padding="0" solid-color="rgb(0,0,0)" text-decoration-color="rgb(0,0,0)" text-decoration-line="none" text-decoration-style="solid" text-indent="0" text-orientation="mixed" text-transform="none" white-space="normal"/><path id="path857" d="m12.5 8c-2.4670542-.00000007-4.5000006 2.0329454-4.5 4.5v10a1.50015 1.50015 0 1 0 3 0v-10c-.00000022-.85694539.6430542-1.5 1.5-1.5h10a1.50015 1.50015 0 1 0 0-3z" font-feature-settings="normal" font-variant-alternates="normal" font-variant-caps="normal" font-variant-ligatures="normal" font-variant-numeric="normal" font-variant-position="normal" isolation="auto" mix-blend-mode="normal" paint-order="fill markers stroke" shape-padding="0" solid-color="rgb(0,0,0)" text-decoration-color="rgb(0,0,0)" text-decoration-line="none" text-decoration-style="solid" text-indent="0" text-orientation="mixed" text-transform="none" white-space="normal"/><path id="path913" d="m18.478516 34.978516a1.50015 1.50015 0 0 0 -1.4785156 1.5214844v7a1.50015 1.50015 0 1 0 3 0v-7a1.50015 1.50015 0 0 0 -1.5214844-1.5214844z" font-feature-settings="normal" font-variant-alternates="normal" font-variant-caps="normal" font-variant-ligatures="normal" font-variant-numeric="normal" font-variant-position="normal" isolation="auto" mix-blend-mode="normal" paint-order="fill markers stroke" shape-padding="0" solid-color="rgb(0,0,0)" text-decoration-color="rgb(0,0,0)" text-decoration-line="none" text-decoration-style="solid" text-indent="0" text-orientation="mixed" text-transform="none" white-space="normal"/><path id="path820" d="m18.478516 18.978516a1.50015 1.50015 0 0 0 -1.4785156 1.5214844v6a1.50015 1.50015 0 1 0 3 0v-6a1.50015 1.50015 0 0 0 -1.5214844-1.5214844z" font-feature-settings="normal" font-variant-alternates="normal" font-variant-caps="normal" font-variant-ligatures="normal" font-variant-numeric="normal" font-variant-position="normal" isolation="auto" mix-blend-mode="normal" paint-order="fill markers stroke" shape-padding="0" solid-color="rgb(0,0,0)" text-decoration-color="rgb(0,0,0)" text-decoration-line="none" text-decoration-style="solid" text-indent="0" text-orientation="mixed" text-transform="none" white-space="normal"/><path id="path941" d="m45.478516 34.978516a1.50015 1.50015 0 0 0 -1.4785156 1.5214844v7a1.50015 1.50015 0 1 0 3 0v-7a1.50015 1.50015 0 0 0 -1.5214844-1.5214844z" font-feature-settings="normal" font-variant-alternates="normal" font-variant-caps="normal" font-variant-ligatures="normal" font-variant-numeric="normal" font-variant-position="normal" isolation="auto" mix-blend-mode="normal" paint-order="fill markers stroke" shape-padding="0" solid-color="rgb(0,0,0)" text-decoration-color="rgb(0,0,0)" text-decoration-line="none" text-decoration-style="solid" text-indent="0" text-orientation="mixed" text-transform="none" white-space="normal"/><path id="path837" d="m45.478516 18.978516a1.50015 1.50015 0 0 0 -1.4785156 1.5214844v6a1.50015 1.50015 0 1 0 3 0v-6a1.50015 1.50015 0 0 0 -1.5214844-1.5214844z" font-feature-settings="normal" font-variant-alternates="normal" font-variant-caps="normal" font-variant-ligatures="normal" font-variant-numeric="normal" font-variant-position="normal" isolation="auto" mix-blend-mode="normal" paint-order="fill markers stroke" shape-padding="0" solid-color="rgb(0,0,0)" text-decoration-color="rgb(0,0,0)" text-decoration-line="none" text-decoration-style="solid" text-indent="0" text-orientation="mixed" text-transform="none" white-space="normal"/><path id="path920" d="m24.478516 34.978516a1.50015 1.50015 0 0 0 -1.4785156 1.5214844v7a1.50015 1.50015 0 1 0 3 0v-7a1.50015 1.50015 0 0 0 -1.5214844-1.5214844z" font-feature-settings="normal" font-variant-alternates="normal" font-variant-caps="normal" font-variant-ligatures="normal" font-variant-numeric="normal" font-variant-position="normal" isolation="auto" mix-blend-mode="normal" paint-order="fill markers stroke" shape-padding="0" solid-color="rgb(0,0,0)" text-decoration-color="rgb(0,0,0)" text-decoration-line="none" text-decoration-style="solid" text-indent="0" text-orientation="mixed" text-transform="none" white-space="normal"/><path id="path840" d="m24.478516 18.978516a1.50015 1.50015 0 0 0 -1.4785156 1.5214844v6a1.50015 1.50015 0 1 0 3 0v-6a1.50015 1.50015 0 0 0 -1.5214844-1.5214844z" font-feature-settings="normal" font-variant-alternates="normal" font-variant-caps="normal" font-variant-ligatures="normal" font-variant-numeric="normal" font-variant-position="normal" isolation="auto" mix-blend-mode="normal" paint-order="fill markers stroke" shape-padding="0" solid-color="rgb(0,0,0)" text-decoration-color="rgb(0,0,0)" text-decoration-line="none" text-decoration-style="solid" text-indent="0" text-orientation="mixed" text-transform="none" white-space="normal"/><path id="path927" d="m31.478516 34.978516a1.50015 1.50015 0 0 0 -1.4785156 1.5214844v7a1.50015 1.50015 0 1 0 3 0v-7a1.50015 1.50015 0 0 0 -1.5214844-1.5214844z" font-feature-settings="normal" font-variant-alternates="normal" font-variant-caps="normal" font-variant-ligatures="normal" font-variant-numeric="normal" font-variant-position="normal" isolation="auto" mix-blend-mode="normal" paint-order="fill markers stroke" shape-padding="0" solid-color="rgb(0,0,0)" text-decoration-color="rgb(0,0,0)" text-decoration-line="none" text-decoration-style="solid" text-indent="0" text-orientation="mixed" text-transform="none" white-space="normal"/><path id="path842" d="m31.478516 18.978516a1.50015 1.50015 0 0 0 -1.4785156 1.5214844v6a1.50015 1.50015 0 1 0 3 0v-6a1.50015 1.50015 0 0 0 -1.5214844-1.5214844z" font-feature-settings="normal" font-variant-alternates="normal" font-variant-caps="normal" font-variant-ligatures="normal" font-variant-numeric="normal" font-variant-position="normal" isolation="auto" mix-blend-mode="normal" paint-order="fill markers stroke" shape-padding="0" solid-color="rgb(0,0,0)" text-decoration-color="rgb(0,0,0)" text-decoration-line="none" text-decoration-style="solid" text-indent="0" text-orientation="mixed" text-transform="none" white-space="normal"/><path id="path934" d="m37.478516 34.978516a1.50015 1.50015 0 0 0 -1.4785156 1.5214844v7a1.50015 1.50015 0 1 0 3 0v-7a1.50015 1.50015 0 0 0 -1.5214844-1.5214844z" font-feature-settings="normal" font-variant-alternates="normal" font-variant-caps="normal" font-variant-ligatures="normal" font-variant-numeric="normal" font-variant-position="normal" isolation="auto" mix-blend-mode="normal" paint-order="fill markers stroke" shape-padding="0" solid-color="rgb(0,0,0)" text-decoration-color="rgb(0,0,0)" text-decoration-line="none" text-decoration-style="solid" text-indent="0" text-orientation="mixed" text-transform="none" white-space="normal"/><path id="path844" d="m37.478516 18.978516a1.50015 1.50015 0 0 0 -1.4785156 1.5214844v6a1.50015 1.50015 0 1 0 3 0v-6a1.50015 1.50015 0 0 0 -1.5214844-1.5214844z" font-feature-settings="normal" font-variant-alternates="normal" font-variant-caps="normal" font-variant-ligatures="normal" font-variant-numeric="normal" font-variant-position="normal" isolation="auto" mix-blend-mode="normal" paint-order="fill markers stroke" shape-padding="0" solid-color="rgb(0,0,0)" text-decoration-color="rgb(0,0,0)" text-decoration-line="none" text-decoration-style="solid" text-indent="0" text-orientation="mixed" text-transform="none" white-space="normal"/><path id="path888" d="m9.5215 29.999799c-2.028484-.0286878-2.028484 3.0286878 0 3 14.999967-.00010969 29.956955.00028125 44.957 0 2.028484.0286878 2.028484-3.0286878 0-3-14.999955.00028125-29.956967-.00010969-44.957 0z" font-feature-settings="normal" font-variant-alternates="normal" font-variant-caps="normal" font-variant-ligatures="normal" font-variant-numeric="normal" font-variant-position="normal" isolation="auto" mix-blend-mode="normal" paint-order="fill markers stroke" shape-padding="0" solid-color="rgb(0,0,0)" text-decoration-color="rgb(0,0,0)" text-decoration-line="none" text-decoration-style="solid" text-indent="0" text-orientation="mixed" text-transform="none" white-space="normal"/></svg>