<svg id="Capa_1" enable-background="new 0 0 512 512" height="512" viewBox="0 0 512 512" width="512" xmlns="http://www.w3.org/2000/svg"><g><path d="m370.596 444.493h-304.624c-17.934 0-32.473-14.538-32.473-32.473v-379.547c0-17.935 14.538-32.473 32.473-32.473h304.624c17.934 0 32.473 14.538 32.473 32.473v379.547c-.001 17.934-14.539 32.473-32.473 32.473z" fill="#f9f3f1"/><path d="m94.199 444.489h-28.225c-17.936 0-32.475-14.53-32.475-32.465v-379.549c-.001-17.935 14.539-32.475 32.475-32.475h28.226c-17.926 0-32.466 14.54-32.466 32.475v379.548c0 17.936 14.54 32.466 32.465 32.466z" fill="#f3eae6"/><path d="m343.559 94.554h-158.018c-4.267 0-7.726-3.459-7.726-7.726s3.459-7.726 7.726-7.726h158.019c4.267 0 7.726 3.459 7.726 7.726s-3.46 7.726-7.727 7.726z" fill="#0681af"/><g fill="#017297"><path d="m249.115 126.812h-63.574c-4.267 0-7.726-3.459-7.726-7.726s3.459-7.726 7.726-7.726h63.574c4.267 0 7.726 3.459 7.726 7.726.001 4.267-3.459 7.726-7.726 7.726z"/><path d="m249.115 307.269h-63.574c-4.267 0-7.726-3.459-7.726-7.726s3.459-7.726 7.726-7.726h63.574c4.267 0 7.726 3.459 7.726 7.726.001 4.267-3.459 7.726-7.726 7.726z"/><path d="m249.115 217.04h-63.574c-4.267 0-7.726-3.459-7.726-7.726s3.459-7.726 7.726-7.726h63.574c4.267 0 7.726 3.459 7.726 7.726s-3.459 7.726-7.726 7.726z"/><path d="m249.115 398.396h-63.574c-4.267 0-7.726-3.459-7.726-7.726s3.459-7.726 7.726-7.726h63.574c4.267 0 7.726 3.459 7.726 7.726.001 4.266-3.459 7.726-7.726 7.726z"/></g><path d="m343.559 184.835h-158.018c-4.267 0-7.726-3.459-7.726-7.726s3.459-7.726 7.726-7.726h158.019c4.267 0 7.726 3.459 7.726 7.726s-3.46 7.726-7.727 7.726z" fill="#0681af"/><path d="m343.559 275.116h-158.018c-4.267 0-7.726-3.459-7.726-7.726s3.459-7.726 7.726-7.726h158.019c4.267 0 7.726 3.459 7.726 7.726s-3.46 7.726-7.727 7.726z" fill="#0681af"/><path d="m332.965 365.398h-147.421c-4.267 0-7.726-3.459-7.726-7.726s3.459-7.726 7.726-7.726h147.421c4.267 0 7.726 3.459 7.726 7.726.001 4.267-3.459 7.726-7.726 7.726z" fill="#0681af"/><g><path d="m469.247 303.45c-14.35 25.075-40.496 39.147-67.446 39.271-2.895-4.986-5.223-10.271-6.954-15.731-6.346-20.068-4.626-42.619 6.655-62.316 14.35-25.075 40.507-39.147 67.456-39.27 13.538 23.302 14.64 52.982.289 78.046z" fill="#a2e62e"/><path d="m468.959 225.404s-61.77 37.736-74.111 101.586c-6.346-20.068-4.626-42.619 6.655-62.316 14.35-25.075 40.506-39.147 67.456-39.27z" fill="#97d729"/><path d="m393.536 285.333c-10.579 0-18.832 9.156-17.739 19.678l4.59 44.164h26.297l4.59-44.164c1.094-10.523-7.159-19.678-17.738-19.678z" fill="#d77f4a"/><path d="m388.133 305.011 4.597 44.165h-12.343l-4.589-44.165c-1.093-10.519 7.159-19.675 17.738-19.675 2.17 0 4.25.384 6.164 1.093-7.4 2.727-12.434 10.225-11.567 18.582z" fill="#c86d36"/><path d="m479.743 340.479-1.045-.647c-26.118-16.176-58.574-16.953-85.162-2.833-26.588-14.12-59.044-13.342-85.162 2.833l-1.045.647c-30.177 18.69-40.72 57.56-24.124 88.936l28.358 53.612c15.603 29.499 53.844 38.122 80.597 18.174.816-.609 1.935-.609 2.751 0 26.753 19.948 64.994 11.324 80.597-18.174l28.358-53.612c16.597-31.376 6.053-70.246-24.123-88.936z" fill="#fe7d43"/><path d="m390.57 502.336c-26.653 18.462-63.712 9.608-79.009-19.313l-28.356-53.607c-16.6-31.377-6.058-70.252 24.121-88.94l1.047-.648c23.186-14.355 51.361-16.578 75.994-7.023-4.853 1.876-9.577 4.22-14.106 7.023l-1.048.648c-30.179 18.688-40.721 57.563-24.121 88.94l28.356 53.607c4.259 8.04 10.189 14.535 17.122 19.313z" fill="#fd6930"/></g><g><g><path d="m49.685 86.823h-30.217c-10.59 0-19.176-8.585-19.176-19.176 0-10.59 8.585-19.176 19.176-19.176h30.216c10.59 0 19.176 8.585 19.176 19.176 0 10.59-8.585 19.176-19.175 19.176z" fill="#ffe177"/><path d="m43.583 86.828h-24.12c-10.588 0-19.17-8.582-19.17-19.181 0-5.289 2.151-10.084 5.618-13.552 3.468-3.468 8.263-5.618 13.552-5.618h24.12c-5.299 0-10.095 2.151-13.562 5.618-3.478 3.468-5.618 8.263-5.618 13.552-.001 10.599 8.581 19.181 19.18 19.181z" fill="#fece85"/></g><g><path d="m49.685 164.121h-30.217c-10.59 0-19.176-8.585-19.176-19.176 0-10.59 8.585-19.176 19.176-19.176h30.216c10.59 0 19.176 8.585 19.176 19.176 0 10.591-8.585 19.176-19.175 19.176z" fill="#ffe177"/><path d="m43.583 164.126h-24.12c-10.588 0-19.17-8.582-19.17-19.181 0-5.289 2.151-10.084 5.618-13.552 3.468-3.468 8.263-5.618 13.552-5.618h24.12c-5.299 0-10.095 2.151-13.562 5.618-3.478 3.468-5.618 8.263-5.618 13.552-.001 10.599 8.581 19.181 19.18 19.181z" fill="#fece85"/></g><g><path d="m49.685 241.42h-30.217c-10.59 0-19.176-8.585-19.176-19.176 0-10.59 8.585-19.176 19.176-19.176h30.216c10.59 0 19.176 8.585 19.176 19.176 0 10.59-8.585 19.176-19.175 19.176z" fill="#ffe177"/><path d="m43.583 241.425h-24.12c-10.588 0-19.17-8.582-19.17-19.181 0-5.289 2.151-10.084 5.618-13.552s8.263-5.618 13.552-5.618h24.12c-5.299 0-10.095 2.151-13.562 5.618-3.478 3.468-5.618 8.263-5.618 13.552-.001 10.599 8.581 19.181 19.18 19.181z" fill="#fece85"/></g><g><path d="m49.685 318.718h-30.217c-10.59 0-19.176-8.585-19.176-19.176 0-10.59 8.585-19.176 19.176-19.176h30.216c10.59 0 19.176 8.585 19.176 19.176 0 10.591-8.585 19.176-19.175 19.176z" fill="#ffe177"/><path d="m43.583 318.723h-24.12c-10.588 0-19.17-8.582-19.17-19.181 0-5.289 2.151-10.084 5.618-13.552s8.263-5.618 13.552-5.618h24.12c-5.299 0-10.095 2.151-13.562 5.618-3.478 3.468-5.618 8.263-5.618 13.552-.001 10.599 8.581 19.181 19.18 19.181z" fill="#fece85"/></g><g><path d="m49.685 396.017h-30.217c-10.59 0-19.176-8.585-19.176-19.176 0-10.59 8.585-19.176 19.176-19.176h30.216c10.59 0 19.176 8.585 19.176 19.176 0 10.59-8.585 19.176-19.175 19.176z" fill="#ffe177"/><path d="m43.583 396.022h-24.12c-10.588 0-19.17-8.582-19.17-19.181 0-5.289 2.151-10.084 5.618-13.552 3.468-3.468 8.263-5.618 13.552-5.618h24.12c-5.299 0-10.095 2.151-13.562 5.618-3.478 3.468-5.618 8.263-5.618 13.552-.001 10.599 8.581 19.181 19.18 19.181z" fill="#fece85"/></g></g><path d="m130.629 128.896c-1.833 0-3.629-.653-5.047-1.876l-27.892-24.056c-3.231-2.787-3.592-7.666-.804-10.897 2.787-3.231 7.665-3.591 10.897-.805l19.833 17.106 22.035-52.592c1.65-3.936 6.176-5.79 10.112-4.14 3.936 1.649 5.789 6.176 4.14 10.112l-26.148 62.408c-.956 2.282-2.948 3.968-5.356 4.535-.586.137-1.18.205-1.77.205z" fill="#a2e62e"/><path d="m130.629 222.786c-1.833 0-3.629-.653-5.047-1.876l-27.892-24.057c-3.231-2.787-3.592-7.666-.804-10.897 2.787-3.232 7.665-3.591 10.897-.805l19.833 17.106 22.035-52.592c1.65-3.936 6.176-5.79 10.112-4.14 3.936 1.649 5.789 6.176 4.14 10.112l-26.148 62.408c-.956 2.282-2.948 3.968-5.356 4.535-.586.138-1.18.206-1.77.206z" fill="#a2e62e"/><path d="m130.629 316.675c-1.833 0-3.629-.653-5.047-1.875l-27.892-24.057c-3.231-2.787-3.592-7.666-.804-10.897 2.787-3.232 7.665-3.592 10.897-.805l19.833 17.106 22.035-52.592c1.65-3.936 6.176-5.79 10.112-4.14 3.936 1.649 5.789 6.176 4.14 10.112l-26.148 62.408c-.956 2.282-2.948 3.968-5.356 4.535-.586.138-1.18.205-1.77.205z" fill="#a2e62e"/></g></svg>