<svg id="Capa_1" enable-background="new 0 0 512 512" height="512" viewBox="0 0 512 512" width="512" xmlns="http://www.w3.org/2000/svg"><g><path d="m459.946 155.059h-71.373v-105.309c0-5.523 4.477-10 10-10h51.373c5.523 0 10 4.477 10 10z" fill="#00516a"/><path d="m449.946 39.75h-30c5.523 0 10 4.477 10 10v105.309h30v-105.309c0-5.523-4.477-10-10-10z" fill="#004651"/><path d="m468.207 500.75h-424.414v-330.551l206.95-132.14 217.464 132.14z" fill="#f9f7f8"/><path d="m250.743 38.059-14.628 9.341 202.092 122.799v330.551h30v-330.551z" fill="#efedef"/><path d="m446.906 202.086-187.15-128.252c-2.306-1.58-5.327-1.647-7.7-.169l-187.812 116.92c-21.411 13.329-49.599 2.032-55.89-22.398l-.524-2.035c-1.118-4.343.669-8.914 4.436-11.345l226.597-146.236c10.334-6.669 23.679-6.399 33.735.684l227.486 160.221c3.539 2.493 5.166 6.917 4.087 11.11-6.465 25.1-35.89 36.148-57.265 21.5z" fill="#ff4f6b"/><g fill="#fb2b3a"><path d="m252.055 73.665c-9.842-5.434-21.854-5.119-31.397.824l-186.414 116.096c-1.54.958-3.117 1.775-4.716 2.483 10.738 4.704 23.632 4.417 34.716-2.483z"/><path d="m500.084 169.475-227.486-160.22c-9.621-6.776-22.245-7.299-32.37-1.493.806.462 1.6.951 2.37 1.493l227.486 160.221c3.539 2.493 5.167 6.917 4.087 11.11-3.045 11.825-11.188 20.527-21.182 24.897 20.515 9.096 45.313-2.106 51.182-24.897 1.079-4.194-.548-8.618-4.087-11.111z"/></g><g><path d="m504.5 508.25h-497c-4.142 0-7.5-3.358-7.5-7.5s3.358-7.5 7.5-7.5h497c4.142 0 7.5 3.358 7.5 7.5s-3.358 7.5-7.5 7.5z" fill="#00516a"/></g><g fill="#00516a"><path d="m154.661 331.189c-.003 0-.006 0-.009 0-3.712 0-7.09 2.286-8.408 5.776l-25.204 66.176c-1.474 3.871.468 8.204 4.339 9.678 3.869 1.472 8.204-.469 9.678-4.339l4.437-11.65h30.142l4.389 11.629c1.475 3.921 5.871 5.801 9.665 4.369 3.875-1.463 5.832-5.79 4.369-9.665l-24.975-66.179c-1.317-3.492-4.693-5.795-8.423-5.795zm-9.454 50.641 9.427-24.752 9.341 24.752z"/><path d="m271.54 331.204c-4.181-.236-8.003 2.453-9.163 6.478l-12.864 45.128-13.337-45.206c-1.19-4.029-5.069-6.671-9.235-6.391-4.084.274-7.476 3.273-8.265 7.377l-11.797 65.364c-.736 4.076 1.973 7.977 6.049 8.713 4.078.735 7.977-1.972 8.713-6.049l7.31-40.5 12.032 40.781c1.128 3.81 4.67 6.412 8.63 6.412h.047c3.986 0 7.505-2.656 8.609-6.492l11.616-40.75 7.764 40.625c.778 4.069 4.707 6.739 8.774 5.959 4.069-.777 6.736-4.706 5.959-8.774l-12.513-65.473c-.819-4.01-4.243-6.971-8.329-7.202z"/><path d="m352.441 331.189c-4.142 0-7.5 3.358-7.5 7.5v67.065c0 3.654 2.633 6.776 6.235 7.393.542.093 17.122.15 24.811.107 4.142-.023 7.481-3.4 7.458-7.542-.023-4.128-3.376-7.458-7.499-7.458-.014 0-.029 0-.043 0-5.539.031-11.49.053-15.961.056v-59.621c-.001-4.142-3.359-7.5-7.501-7.5z"/><path d="m311.477 338.689v67.121c0 4.142 3.358 7.5 7.5 7.5s7.5-3.358 7.5-7.5v-67.121c0-4.142-3.358-7.5-7.5-7.5s-7.5 3.358-7.5 7.5z"/><path d="m81.415 413.065c4.142 0 7.5-3.358 7.5-7.5v-26.446h17.36c4.142 0 7.5-3.358 7.5-7.5s-3.358-7.5-7.5-7.5h-17.36v-17.684h19.505c4.142 0 7.5-3.358 7.5-7.5s-3.358-7.5-7.5-7.5h-27.005c-4.142 0-7.5 3.358-7.5 7.5v66.63c0 4.142 3.357 7.5 7.5 7.5z"/><path d="m409.219 413.311h.019c4.133 0 7.489-3.346 7.5-7.481l.079-32.07 20.055-30.808c2.26-3.472 1.277-8.118-2.194-10.377-3.472-2.259-8.117-1.278-10.377 2.194l-14.988 23.024-15.15-23.203c-2.265-3.468-6.913-4.444-10.38-2.179-3.468 2.265-4.444 6.912-2.179 10.38l20.214 30.958-.079 32.044c-.012 4.141 3.338 7.507 7.48 7.518z"/><path d="m81.415 312.25h349.171c4.142 0 7.5-3.358 7.5-7.5s-3.358-7.5-7.5-7.5h-349.171c-4.142 0-7.5 3.358-7.5 7.5s3.357 7.5 7.5 7.5z"/><path d="m430.585 432.25h-349.17c-4.142 0-7.5 3.358-7.5 7.5s3.358 7.5 7.5 7.5h349.171c4.142 0 7.5-3.358 7.5-7.5s-3.358-7.5-7.501-7.5z"/></g><path d="m257.995 258.475c-1.258.63-2.732.63-3.99 0-17.623-8.834-37.122-21.109-49.029-36.754-11.125-14.617-15.489-35.148-2.751-50.179 10.46-12.343 28.151-15.46 42.184-7.425 3.524 2.018 6.204 4.509 8.198 6.849 1.766 2.072 5.021 2.072 6.786 0 1.994-2.339 4.674-4.831 8.198-6.849 14.033-8.035 31.724-4.918 42.184 7.425 12.738 15.031 8.374 35.562-2.751 50.179-11.907 15.645-31.406 27.92-49.029 36.754z" fill="#ff4f6b"/><g><path d="m309.775 171.542c-10.056-11.867-26.794-15.199-40.541-8.3 3.938 1.977 7.538 4.756 10.541 8.3 12.738 15.031 8.374 35.562-2.751 50.179-9.022 11.854-22.403 21.769-36.024 29.723 4.355 2.543 8.735 4.89 13.005 7.031 1.258.63 2.732.63 3.99 0 17.624-8.834 37.122-21.109 49.029-36.754 11.125-14.617 15.489-35.148 2.751-50.179z" fill="#fb2b3a"/></g></g></svg>