<svg id="Capa_1" enable-background="new 0 0 512 512" height="512" viewBox="0 0 512 512" width="512" xmlns="http://www.w3.org/2000/svg"><g><g><path d="m333.201 127.203c-2.079 0-4.159-.794-5.746-2.381l-16.254-16.254c-3.175-3.175-3.175-8.317 0-11.492s8.317-3.175 11.492 0l10.508 10.508 10.508-10.508c3.175-3.175 8.317-3.175 11.492 0s3.175 8.317 0 11.492l-16.254 16.254c-1.587 1.587-3.666 2.381-5.746 2.381z" fill="#98db7c"/></g><path d="m273.932 75.529c-3.175-3.175-8.317-3.175-11.492 0l-10.508 10.508-10.508-10.508c-3.175-3.175-8.317-3.175-11.492 0s-3.175 8.317 0 11.492l13.873 13.873v37.269c0 4.488 3.635 8.127 8.127 8.127s8.127-3.639 8.127-8.127v-37.269l13.873-13.873c3.175-3.175 3.175-8.317 0-11.492z" fill="#ffeac6"/><path d="m287.65 183.841c-2.229-4.108-5.148-7.787-8.606-10.883-6.563-5.874-10.857-13.852-10.858-22.66v-3.139c0-8.096-5.532-15.601-13.524-16.901-.927-.151-1.843-.225-2.741-.224l-10.823 18.464c0 9.072-3.452 18.052-10.316 23.984-10.247 8.854-18.477 22.725-15.91 37.821 2.73 16.049 12.369 25.001 28.305 28.326 2.981.622 5.917.908 8.782.894l8.115-12.93c.405-13.875 9.52-25.526 22.062-29.761 5.41-1.827 8.238-7.971 5.514-12.991z" fill="#e29a6c"/><path d="m365.709 138.163c0 9.439-4.023 17.939-10.448 23.877 0 0-8.932 6.137-22.06 6.137-17.953 0-29.877-12.061-29.877-30.015 0-8.592 6.408-21.138 19.025-23.466 3.394-.626 7.047-.915 10.852-.915 17.954.002 32.508 6.429 32.508 24.382z" fill="#ff5f7a"/><path d="m152.438 170.671c14.135 0 26.567-6.438 34.479-16.254-7.912-9.815-20.345-16.254-34.479-16.254-11.993 0-22.761 4.635-30.581 12.035-2.416 2.286-2.416 6.15 0 8.437 7.82 7.401 18.588 12.036 30.581 12.036z" fill="#77cc7d"/><path d="m203.171 119.938c0 14.135-6.438 26.567-16.254 34.479-9.815-7.912-16.254-20.345-16.254-34.479 0-11.993 4.635-22.761 12.035-30.581 2.286-2.416 6.15-2.416 8.437 0 7.401 7.82 12.036 18.588 12.036 30.581z" fill="#98db7c"/><circle cx="154.41" cy="219.432" fill="#ffe077" r="16.254"/><circle cx="235.679" cy="32.514" fill="#ffe09c" r="16.254"/><circle cx="308.821" cy="235.686" fill="#f4aa73" r="16.254"/><g><path d="m357.582 219.432c-2.079 0-4.159-.794-5.746-2.381-3.175-3.175-3.175-8.317 0-11.492l8.127-8.127c3.175-3.175 8.317-3.175 11.492 0s3.175 8.317 0 11.492l-8.127 8.127c-1.587 1.587-3.667 2.381-5.746 2.381z" fill="#98db7c"/></g><g><path d="m121.902 113.783c-2.079 0-4.159-.794-5.746-2.381-3.175-3.175-3.175-8.317 0-11.492l8.127-8.127c3.175-3.175 8.317-3.175 11.492 0s3.175 8.317 0 11.492l-8.127 8.127c-1.587 1.587-3.666 2.381-5.746 2.381z" fill="#f5c89d"/></g><g><path d="m203.171 260.066c-2.079 0-4.159-.794-5.746-2.381l-8.127-8.127c-3.175-3.175-3.175-8.317 0-11.492s8.317-3.175 11.492 0l8.127 8.127c3.175 3.175 3.175 8.317 0 11.492-1.587 1.588-3.666 2.381-5.746 2.381z" fill="#f4aa73"/></g><g><path d="m333.201 81.275c-2.079 0-4.159-.794-5.746-2.381l-8.127-8.127c-3.175-3.175-3.175-8.317 0-11.492s8.317-3.175 11.492 0l8.127 8.127c3.175 3.175 3.175 8.317 0 11.492-1.587 1.587-3.666 2.381-5.746 2.381z" fill="#ffeac6"/></g><path d="m390.383 59.494-19.365-22.567c-4.238-4.948-5.119-11.913-2.246-17.758 1.976-4.032.317-8.901-3.714-10.877-4.04-1.992-8.905-.313-10.873 3.71v-.008c-2.873 5.849-8.944 9.436-15.436 9.067l-29.698-1.544c-12.913-.71-25.119 6.428-30.865 18.123l-3.659 7.452c-1.976 4.032-.317 8.901 3.714 10.877 1.151.567 2.373.833 3.571.833 3 0 5.889-1.671 7.302-4.544l3.659-7.452c2.873-5.841 8.952-9.381 15.436-9.059l29.698 1.544c4.9.281 9.697-.594 14.085-2.413 1.243 4.561 3.482 8.887 6.692 12.631l19.365 22.567c4.238 4.944 5.119 11.913 2.246 17.754l-3.667 7.452c-1.976 4.028-.325 8.897 3.706 10.881 3.936 1.959 8.895.359 10.881-3.706l3.667-7.456c5.747-11.686 3.977-25.623-4.499-35.507z" fill="#ffe077"/><path d="m182.157 35.88-29.141 29.141c-6.347 6.347-16.639 6.347-22.986 0-6.347-6.347-6.347-16.639 0-22.986l29.141-29.141c6.347-6.347 16.639-6.347 22.986 0 6.347 6.347 6.347 16.638 0 22.986z" fill="#ffc263"/><g><path d="m196.791 284.447 15.175 212.457c.608 8.506 7.685 15.096 16.213 15.096h89.888c8.527 0 15.605-6.59 16.213-15.096l.663-9.285-5.881-8.545 7.042-7.708 10.449-146.284-5.896-8.343 7.057-7.911 1.741-24.381z" fill="#c9c5c9"/><path d="m365.709 292.574h-145.974c-4.492 0-8.284-3.639-8.284-8.127s3.167-8.127 7.659-8.127h146.599c4.492 0 8.127 3.639 8.127 8.127s-3.635 8.127-8.127 8.127z" fill="#dbd8db"/><path d="m346.553 325.082 1.161-16.254h-127.351l-.938-24.381h-65.015l1.741 24.381 6.55 8.281-5.39 7.972 10.449 146.284 6.55 8.275-5.389 7.978.663 9.284c.607 8.506 7.685 15.096 16.212 15.096h42.382l-.938-24.381h107.701l1.161-16.254h-26.939l6.093-146.284h31.297zm-102.747 146.283h-17.189l-5.628-146.284h22.817zm49.093 0h-32.84v-146.283h38.932z" fill="#b8b2b8"/><path d="m156.481 313.446.831 11.636h31.295l6.093 146.284h-26.939l1.161 16.253h58.319l-.625-16.253h-15.65l-6.093-146.284h16.115l-.625-16.254h-64.212z" fill="#b0a8af"/><path d="m219.11 276.32h-80.954c-4.492 0-8.127 3.639-8.127 8.127s3.635 8.127 8.127 8.127h81.579z" fill="#c9c5c9"/></g><path d="m246.504 226.988c-9.325-1.944-16.968-9.928-18.579-19.412-1.468-8.643 1.548-17.162 8.063-22.793 10.135-8.754 15.944-21.98 15.944-36.281l-.011-18.466c-8.964.016-16.243 7.288-16.243 16.255v2.209c0 9.072-3.452 18.052-10.316 23.984-10.247 8.854-16.024 22.725-13.457 37.821 2.73 16.049 15.335 29.268 31.271 32.593 2.981.622 5.916.908 8.782.894 5.611-.027 9.532-5.429 8.562-10.955-.301-1.713-.461-3.474-.461-5.278 0-.388.001-.58.014-.965-4.336.826-10.192 1.099-13.569.394z" fill="#d48c64"/><path d="m349.455 162.544c-17.954 0-32.508-14.554-32.508-32.508 0-6.539 2.08-11.612 5.402-15.339-12.533 2.358-21.655 9.378-21.655 23.466 0 17.953 14.554 32.508 32.508 32.508 8.516 0 16.264-3.272 22.06-8.63-1.873.334-3.839.503-5.807.503z" fill="#fb4455"/><path d="m368.717.839c-4.04-1.992-8.905-.313-10.873 3.71l-3.659 7.444 14.587 7.175 3.659-7.452c1.976-4.031.318-8.9-3.714-10.877z" fill="#a46a5a"/></g></svg>