<svg height="511pt" viewBox="-71 1 511 511.99925" width="511pt" xmlns="http://www.w3.org/2000/svg"><path d="m184.511719 0c-101.464844 0-184.011719 82.546875-184.011719 184.011719 0 32.171875 9.492188 69.414062 28.214844 110.6875 14.800781 32.632812 35.402344 67.925781 61.230468 104.910156 43.847657 62.78125 88.339844 109.492187 88.785157 109.953125 3.105469 3.25 8.457031 3.25 11.5625 0 .445312-.460938 44.9375-47.171875 88.785156-109.953125 25.828125-36.984375 46.429687-72.277344 61.230469-104.910156 18.722656-41.273438 28.214844-78.515625 28.214844-110.6875 0-101.464844-82.546876-184.011719-184.011719-184.011719zm0 0" fill="#7bc5dd"/><path d="m121.949219 391.644531c-25.828125-36.984375-46.429688-72.28125-61.230469-104.910156-18.722656-41.273437-28.214844-78.515625-28.214844-110.6875 0-80.390625 51.820313-148.894531 123.808594-173.886719-88.128906 13.613282-155.8125 89.976563-155.8125 181.851563 0 32.171875 9.496094 69.414062 28.214844 110.6875 14.800781 32.632812 35.402344 67.925781 61.234375 104.910156 43.847656 62.78125 88.335937 109.492187 88.78125 109.953125 3.105469 3.25 8.457031 3.25 11.5625 0 .152343-.15625 5.328125-5.589844 13.800781-15.128906-14.046875-15.421875-48.285156-54.308594-82.144531-102.789063zm0 0" fill="#50b2d2"/><path d="m184.511719 48.003906c-74.996094 0-136.007813 61.011719-136.007813 136.007813 0 74.996093 61.011719 136.011719 136.007813 136.011719 74.996093 0 136.011719-61.015626 136.011719-136.011719 0-74.996094-61.015626-136.007813-136.011719-136.007813zm0 0" fill="#f0efef"/><path d="m208.515625 304.019531c-74.996094 0-136.011719-61.011719-136.011719-136.007812 0-42.003907 19.144532-79.621094 49.160156-104.589844-43.441406 22.734375-73.160156 68.253906-73.160156 120.589844 0 74.996093 61.011719 136.011719 136.007813 136.011719 32.992187 0 63.273437-11.8125 86.847656-31.421876-18.808594 9.84375-40.1875 15.417969-62.84375 15.417969zm0 0" fill="#d3cecf"/><path d="m247.515625 111.007812h-128.007813c-4.417968 0-8 3.582032-8 8v128.007813c0 4.417969 3.582032 8 8 8h128.007813c4.417969 0 8-3.582031 8-8v-128.007813c0-4.417968-3.582031-8-8-8zm0 0" fill="#ffdc75"/><path d="m127.507812 247.015625v-128.007813c0-4.417968 3.582032-8 8-8h-16c-4.417968 0-8 3.582032-8 8v128.007813c0 4.417969 3.582032 8 8 8h16c-4.417968 0-8-3.582031-8-8zm0 0" fill="#ffc519"/><path d="m207.515625 111.007812h-48.003906v56.003907c0 4.417969 3.582031 8 8 8h32c4.417969 0 8.003906-3.582031 8.003906-8zm0 0" fill="#ffbd85"/><path d="m183.511719 191.011719h-48.003907c-4.417968 0-8 3.582031-8 8v24.003906c0 4.417969 3.582032 8 8 8h48.003907c4.417969 0 8-3.582031 8-8v-24.003906c0-4.417969-3.582031-8-8-8zm0 0" fill="#f0efef"/></svg>