<svg height="512pt" viewBox="-72 0 512 512.0005" width="512pt" xmlns="http://www.w3.org/2000/svg"><path d="m183.871094 0c-101.386719 0-183.871094 82.484375-183.871094 183.871094 0 32.164062 9.496094 69.40625 28.226562 110.699218 14.820313 32.664063 35.445313 68 61.304688 105.03125 43.914062 62.875 88.464844 109.648438 88.910156 110.113282 2.917969 3.046875 7.941406 3.046875 10.859375 0 .445313-.464844 45-47.238282 88.910157-110.113282 25.863281-37.03125 46.488281-72.367187 61.304687-105.03125 18.730469-41.292968 28.226563-78.535156 28.226563-110.699218 0-101.386719-82.484376-183.871094-183.871094-183.871094zm82.136718 390.824219c-34.332031 49.183593-69.054687 88.355469-82.136718 102.652343-13.082032-14.300781-47.800782-53.46875-82.136719-102.652343-56.722656-81.257813-86.703125-152.820313-86.703125-206.953125 0-93.097656 75.742188-168.839844 168.839844-168.839844s168.839844 75.742188 168.839844 168.839844c0 54.132812-29.980469 125.695312-86.703126 206.953125zm0 0"/><path d="m274.144531 82.453125c-3.097656-2.761719-7.851562-2.484375-10.609375.613281-2.761718 3.097656-2.488281 7.847656.613282 10.609375 25.71875 22.90625 40.46875 55.78125 40.46875 90.195313 0 66.578125-54.167969 120.742187-120.746094 120.742187s-120.742188-54.164062-120.742188-120.742187 54.164063-120.742188 120.742188-120.742188c18.449218 0 36.152344 4.046875 52.621094 12.035156 3.730468 1.8125 8.230468.253907 10.039062-3.484374 1.8125-3.734376.253906-8.230469-3.480469-10.039063-18.527343-8.988281-38.441406-13.542969-59.179687-13.542969-74.867188 0-135.773438 60.90625-135.773438 135.773438 0 74.867187 60.90625 135.773437 135.773438 135.773437 74.867187 0 135.773437-60.90625 135.773437-135.773437 0-38.695313-16.582031-75.664063-45.5-101.417969zm0 0"/><path d="m118.738281 111.226562c-4.148437 0-7.511719 3.363282-7.511719 7.511719v128.261719c0 4.148438 3.363282 7.515625 7.511719 7.515625h128.261719c4.148438 0 7.515625-3.367187 7.515625-7.515625v-128.261719c0-4.148437-3.367187-7.511719-7.515625-7.511719zm72.648438 15.027344v33.066406h-17.035157v-33.066406zm48.097656 113.230469h-113.230469v-113.230469h33.066406v40.582032c0 4.152343 3.367188 7.515624 7.515626 7.515624h32.066406c4.148437 0 7.515625-3.363281 7.515625-7.515624v-40.582032h33.066406zm0 0"/><path d="m190.886719 183.371094h-48.097657c-4.152343 0-7.515624 3.363281-7.515624 7.515625v24.046875c0 4.152344 3.363281 7.515625 7.515624 7.515625h48.097657c4.148437 0 7.515625-3.363281 7.515625-7.515625v-24.046875c0-4.152344-3.367188-7.515625-7.515625-7.515625zm-7.515625 24.046875h-33.066406v-9.015625h33.066406zm0 0"/></svg>